<?xml version="1.0" encoding="UTF-8"?>
<!DOCTYPE svg PUBLIC "-//W3C//DTD SVG 1.1//EN" "http://www.w3.org/Graphics/SVG/1.1/DTD/svg11.dtd">
<svg xmlns="http://www.w3.org/2000/svg" version="1.1" width="32px" height="32px" style="shape-rendering:geometricPrecision; text-rendering:geometricPrecision; image-rendering:optimizeQuality; fill-rule:evenodd; clip-rule:evenodd" xmlns:xlink="http://www.w3.org/1999/xlink">
<g><path style="opacity:0.808" fill="#101010" d="M 0.5,-0.5 C 1.5,-0.5 2.5,-0.5 3.5,-0.5C 7.12965,3.63104 10.963,7.63104 15,11.5C 19.037,7.63104 22.8704,3.63104 26.5,-0.5C 27.5,-0.5 28.5,-0.5 29.5,-0.5C 30.4124,0.738195 30.5791,2.07153 30,3.5C 26.1667,7.33333 22.3333,11.1667 18.5,15C 22.3333,18.8333 26.1667,22.6667 30,26.5C 30.6128,28.4952 30.1128,30.1619 28.5,31.5C 28.1667,31.5 27.8333,31.5 27.5,31.5C 23.5368,27.0355 19.3702,22.7022 15,18.5C 10.6298,22.7022 6.46318,27.0355 2.5,31.5C 2.16667,31.5 1.83333,31.5 1.5,31.5C 1.16667,30.5 0.5,29.8333 -0.5,29.5C -0.5,28.5 -0.5,27.5 -0.5,26.5C 3.63104,22.8704 7.63104,19.037 11.5,15C 7.63104,10.963 3.63104,7.12965 -0.5,3.5C -0.5,2.5 -0.5,1.5 -0.5,0.5C 0.166667,0.5 0.5,0.166667 0.5,-0.5 Z"/></g>
</svg>
